<?xml version="1.0" ?><!DOCTYPE svg  PUBLIC '-//W3C//DTD SVG 1.1//EN'  'http://www.w3.org/Graphics/SVG/1.1/DTD/svg11.dtd'><svg enable-background="new 0 0 500 500" height="500px" id="Capa_1" version="1.1" viewBox="0 0 500 500" width="500px" xml:space="preserve" xmlns="http://www.w3.org/2000/svg" xmlns:xlink="http://www.w3.org/1999/xlink"><path d="M412.226,87.133L88.29,412.367c41.458,40.974,98.435,66.279,161.33,66.279  c126.765,0,229.527-102.764,229.527-229.527C479.146,185.895,453.58,128.644,412.226,87.133z" fill="#A8CD16"/><path d="M249.619,19.592c-126.765,0-229.527,102.762-229.527,229.527c0,63.87,26.096,121.639,68.197,163.248  L412.226,87.133C370.665,45.414,313.159,19.592,249.619,19.592z" fill="#94B216"/><circle cx="249.062" cy="248.562" fill="none" r="243.438" stroke="#A8CD16" stroke-miterlimit="10" stroke-width="5"/><g><path clip-rule="evenodd" d="M332.274,248.274c0-11.565,0.107-23.131-0.046-34.695   c-0.075-5.62,2.49-9.382,7.379-11.546c6.493-2.874,12.771-2.293,18.425,2.195c2.6,2.065,3.915,4.893,3.916,8.265   c0.001,23.841,0.017,47.682-0.015,71.522c-0.006,4.663-2.502,7.929-6.479,9.965c-6.312,3.23-12.578,2.951-18.465-1.106   c-3.125-2.156-4.747-5.217-4.732-9.137C332.304,271.916,332.274,260.096,332.274,248.274z" fill="#FFFFFF" fill-rule="evenodd"/><path clip-rule="evenodd" d="M248.227,199.401c23.557,0,47.114,0,70.672,0   c0.282,0,0.566-0.001,0.852,0c1.108,0.007,1.108,0.008,1.114,1.157c0,0.057,0,0.114,0,0.17c0,36.714,0.013,73.427-0.014,110.141   c-0.005,6.464-2.702,11.64-7.961,15.424c-3.35,2.409-7.166,3.352-11.246,3.355c-2.671,0.004-5.343,0-8.014,0.003   c-1.184,0-1.189,0.005-1.189,1.181c-0.001,12.73-0.083,25.461,0.041,38.19c0.048,4.877-2.123,8.229-6.127,10.617   c-5.746,3.427-13.906,2.929-19.136-1.174c-2.865-2.249-4.403-5.136-4.388-8.888c0.054-12.844,0.021-25.688,0.021-38.532   c0-1.395-0.002-1.396-1.403-1.396c-8.922-0.001-17.844-0.001-26.767,0c-1.229,0.001-1.233,0.004-1.233,1.223   c-0.001,12.701-0.088,25.404,0.042,38.105c0.05,4.952-2.087,8.477-6.256,10.689c-6.352,3.369-12.71,3.13-18.689-0.988   c-3.157-2.174-4.733-5.265-4.712-9.229c0.068-12.815,0.025-25.631,0.025-38.446c0-1.354-0.001-1.345-1.355-1.356   c-3.181-0.027-6.365,0.011-9.543-0.109c-8.587-0.323-16.135-7.282-17.197-15.805c-0.125-1.01-0.182-2.038-0.182-3.057   c-0.009-36.657-0.008-73.313-0.007-109.969c0-1.305,0.002-1.308,1.301-1.308C200.658,199.401,224.443,199.401,248.227,199.401z" fill="#FFFFFF" fill-rule="evenodd"/><path clip-rule="evenodd" d="M211.959,136.336c-1.065-1.594-2.056-3.078-3.048-4.561   c-2.86-4.274-5.724-8.546-8.579-12.825c-0.914-1.369-0.675-2.874,0.553-3.666c1.206-0.777,2.583-0.412,3.507,0.966   c3.908,5.831,7.814,11.662,11.699,17.508c0.383,0.576,0.701,0.792,1.434,0.55c7.414-2.443,15.052-3.643,22.827-4.16   c10.327-0.687,20.556-0.074,30.674,2.116c2.577,0.559,5.113,1.327,7.649,2.065c0.649,0.189,0.953,0.043,1.308-0.49   c3.886-5.846,7.801-11.672,11.69-17.513c0.636-0.953,1.43-1.573,2.61-1.403c1.836,0.264,2.673,2.256,1.614,3.865   c-2.205,3.345-4.443,6.669-6.671,10c-1.484,2.221-2.977,4.437-4.461,6.657c-0.17,0.254-0.321,0.521-0.531,0.866   c0.418,0.204,0.761,0.384,1.113,0.541c6.561,2.9,12.514,6.725,17.642,11.756c8.609,8.447,13.947,18.707,16.496,30.433   c0.638,2.934,0.921,5.945,1.335,8.925c0.176,1.269,0.067,1.356-1.227,1.356c-17.335,0-34.671,0-52.007,0   c-30.181,0-60.362,0-90.543,0c-1.718,0-1.652,0.005-1.479-1.692c0.443-4.364,1.169-8.67,2.401-12.885   c2.961-10.129,8.007-19.036,15.612-26.411c4.944-4.794,10.631-8.515,16.91-11.334C210.927,136.804,211.364,136.605,211.959,136.336   z M208.841,160.555c-0.006,4.516,3.621,8.151,8.111,8.129c4.432-0.021,8.062-3.676,8.065-8.118   c0.004-4.458-3.611-8.055-8.093-8.056C212.429,152.51,208.847,156.075,208.841,160.555z M287.148,160.583   c-0.003-4.523-3.529-8.067-8.03-8.072c-4.56-0.004-8.086,3.539-8.073,8.114c0.014,4.495,3.604,8.079,8.074,8.061   C283.604,168.667,287.152,165.086,287.148,160.583z" fill="#FFFFFF" fill-rule="evenodd"/><path clip-rule="evenodd" d="M164.379,248.312c0,11.707-0.068,23.413,0.034,35.12   c0.041,4.664-2.08,7.921-5.869,10.247c-5.818,3.57-13.782,3.175-19.22-0.896c-3.009-2.253-4.611-5.244-4.61-9.053   c0.005-23.584,0.01-47.167-0.002-70.751c-0.003-5.542,2.952-9.08,7.775-11.131c5.671-2.411,11.303-2.067,16.55,1.262   c3.502,2.222,5.398,5.409,5.369,9.742C164.327,224.672,164.379,236.492,164.379,248.312z" fill="#FFFFFF" fill-rule="evenodd"/></g></svg>